<?xml version="1.0" encoding="UTF-8"?>
<svg id="Layer_1" xmlns="http://www.w3.org/2000/svg" version="1.1" viewBox="0 0 384 384">
  <!-- Generator: Adobe Illustrator 29.7.1, SVG Export Plug-In . SVG Version: 2.1.1 Build 8)  -->
  <path d="M180.6,33.16c35.34-3.6,56.59,8.13,74.53,37.45,37.2,60.79,69.51,124.79,106.26,185.87,19.83,42.78-7.26,89.92-53.49,95.36l-232.52-.04c-50.89-8.77-73.31-55.54-49.27-101.54,33.16-63.45,73.88-124.82,107.82-188.06,10.11-15.03,28.35-27.18,46.65-29.04ZM188.8,96.74c-5.9,1-10.97,6.65-12.51,12.22l-.08,101.04c2.06,18.26,27.57,19.18,31.46,1.4l.1-100.27c-.86-9.64-9.47-16-18.98-14.39ZM188.8,240.46c-5.04.86-11.37,6.62-12.38,11.59-1.21,5.93-.89,32.07-.17,38.76,1.8,16.78,27.86,17.49,31.17,1.91,1.29-6.07,1.1-31.86.34-38.59-1.04-9.22-9.93-15.2-18.95-13.67Z"/>
</svg>