<?xml version="1.0" encoding="UTF-8"?>
<svg id="Layer_1" xmlns="http://www.w3.org/2000/svg" version="1.1" viewBox="0 0 384 384">
  <!-- Generator: Adobe Illustrator 29.7.1, SVG Export Plug-In . SVG Version: 2.1.1 Build 8)  -->
  <path d="M210.75,213.33v11.23h-33.75v-11.23h-46.12c-3.29,0-9.79-3.4-12.38-5.61-8.2-6.96-8.66-15.36-8.23-25.45,2.16-50.65,10.59-102.43,12.95-153.25,1.41-12.09,10.34-21.41,22.63-22.32,31.16-2.32,65.25,1.75,96.72.1,15.59,3.71,19.1,14.35,20.68,28.76,5.62,50.95,7.14,102.49,12.81,153.46.96,10.12-10.58,24.32-20.68,24.32h-44.62Z"/>
  <path d="M308.62,180.4c-1.07.66-1.04,1.49-1.16,2.58-3.09,26.32,8.16,48.87-17.27,68.84-3.42,2.69-14.15,6.72-14.76,7.35s-1.4,4.09-2.29,5.58c-2.33,3.92-8.49,9.97-13.26,9.97h-50.62v20.58c0,.21-.99,3.72-1.17,4.07-2.71,5.33-9.83,1.69-11.26,3.74l-.2,13.4c20.17,6.92,40.01,15.09,60.24,21.84,7.48,2.5,14.3,1.71,19.46,9.02,11.08,15.68-5.42,35.67-22.83,28.02-11.16-4.9-13.99-19.46-6.75-28.81l-49.5-17.97v12.73c19.09,4.89,16.64,34.26-2.59,35.96-23.32,2.06-29.64-28.28-8.66-35.96v-11.98l-48.75,17.23c10.97,14.2,1.27,32.46-16.92,30.72-17.2-1.65-21.17-26.54-6.11-34.62,3.64-1.95,6.15-1.49,9.39-2.6,21.11-7.27,41.91-15.59,63.03-22.8l.11-14.12c-2.73.86-9.75-.8-9.75-4.11v-23.58h-46.88c-5.27,0-14.1-8.17-15.5-13.35-14.64-.93-28.21-9.46-34.66-22.68-1.22-2.5-4.22-10.63-4.22-13v-43.79h-10.88c-5.64,0-7.99-11.08,2.21-12.01,4.74-.43,28.49-.7,31.95.37,6.8,2.09,4.92,11.64-.42,11.64h-11.62v40.05c0,1.76,2.02,8.7,2.86,10.62,3.1,7.13,14.11,17.14,22.28,16.77,3.02-.14,4.39-5.73,6.82-8.22,3.68-3.78,8.94-5.69,14.14-6.1,39.75-3.13,83.59,2.39,123.77.04,7.13.72,13.28,5.47,16.24,11.87l.96.12c7.62-2.65,14.65-8.38,18.05-15.74.74-1.6,3.38-9.56,3.38-10.85v-40.05h-11.62c-.59,0-2.86-1.96-3.29-2.7-2.68-4.62.75-8.14,5.5-8.56,10.74-.96,23.3.51,34.2.37,4.97,1.6,2.91,10.15-.42,10.15h-11.25Z"/>
</svg>