<?xml version="1.0" encoding="UTF-8"?>
<svg id="Layer_1" xmlns="http://www.w3.org/2000/svg" version="1.1" viewBox="0 0 384 384">
  <!-- Generator: Adobe Illustrator 29.7.1, SVG Export Plug-In . SVG Version: 2.1.1 Build 8)  -->
  <path d="M285,184.14H99l-12.03-141.07c-.96-15.93,8.78-25.56,24.37-26.64,52.02-3.59,108.12,2.78,160.57,0,16.02-.29,27.07,12.28,25.08,28.1l-11.99,139.61Z"/>
  <polygon points="129 246.27 124.5 291.18 259.5 291.18 255 246.27 291.75 246.27 291.75 367.16 290.62 368.28 268.5 368.28 261.75 306.15 122.25 306.15 115.5 368.28 93 368.28 93 246.27 129 246.27"/>
  <path d="M81.55,200.04l219.57-.18c16.99,2.76,17.54,26.32.77,29.96H82.11c-16.13-3.48-16.45-25.67-.55-29.78Z"/>
</svg>