<?xml version="1.0" encoding="UTF-8"?>
<svg id="Layer_1" xmlns="http://www.w3.org/2000/svg" version="1.1" viewBox="0 0 384 384">
  <!-- Generator: Adobe Illustrator 29.7.1, SVG Export Plug-In . SVG Version: 2.1.1 Build 8)  -->
  <path d="M77.84,168.64l226.31-.25c75.82,9.52,52.11,90.78,55.88,144.15-.32,11.59-15.79,16-22.12,6.3-4.41-6.76,2.03-17.07-7.52-18.69l-279.2.58c-6.48,2.76.5,14.42-7.67,20.79-7.96,6.2-19.03.96-19.55-8.97,3.97-52.73-20-132.63,53.88-143.9Z"/>
  <path d="M60,97.68c1.93-19.05,19.09-35.27,37.97-36.96l185.94-.13c17.89-.64,40.09,19.18,40.09,37.09v59.88c0,3.74-10.26.03-12.48-.27-3.24-.44-14.63-.52-16.03-1.21-1.67-.82-2.91-8.16-4.2-10.78-2.96-5.98-9.57-11.04-16.15-12.33-9.48-1.86-37.87-1.29-48.3-.52-8.93.67-16.82,5.8-20.48,13.99-1.35,3.02-1.76,9.36-5,9.98-1.95.37-18.69.23-19.87-.35-1.67-.82-2.91-8.16-4.2-10.78-2.88-5.83-9.18-10.75-15.55-12.17-8.61-1.93-39.89-1.51-49.64-.66-9.83.85-17.11,7.12-20.76,15.96-.85,2.06-.73,6.62-2.83,7.65-1.32.65-12.9.82-16.03,1.21-2.23.28-12.48,3.87-12.48.27v-59.88Z"/>
</svg>