<?xml version="1.0" encoding="UTF-8"?>
<svg id="Layer_1" xmlns="http://www.w3.org/2000/svg" version="1.1" viewBox="0 0 384 384">
  <!-- Generator: Adobe Illustrator 29.7.1, SVG Export Plug-In . SVG Version: 2.1.1 Build 8)  -->
  <path d="M0,166.92c1.65-1.4,1.75-3.77,3.36-5.26.46-.43,4.97-2.98,5.27-2.98h149.62v-22.46h-58.88c-.33,0-5.1-2.77-5.64-3.35-1.21-1.3-2.78-4.91-3-6.74V10.84c1.05-5.94,4.89-9.54,10.86-10.12h180.83c6.26.61,10.26,4.6,10.88,10.85l-.02,114.58c-.22,1.82-1.79,5.44-3,6.74-.54.58-5.32,3.35-5.64,3.35h-58.88v22.46h149.62c.3,0,4.81,2.55,5.27,2.98,1.61,1.49,1.71,3.85,3.36,5.26v5.99c-1.65,1.4-1.75,3.77-3.36,5.26-.46.43-4.97,2.98-5.27,2.98h-14.62l.02,192.77c-.85,5.37-3.81,7.71-8.27,10.09h-6c-1.41-1.64-3.77-1.74-5.27-3.35-.43-.46-2.98-4.96-2.98-5.26v-171.79H45.75v171.79c0,.3-2.55,4.8-2.98,5.26-1.5,1.61-3.86,1.71-5.27,3.35h-6c-4.46-2.37-7.42-4.71-8.27-10.09l.02-192.77h-14.62c-.3,0-4.81-2.55-5.27-2.98-1.61-1.49-1.71-3.85-3.36-5.26v-5.99Z"/>
  <path d="M237,300.91v13.85c0,4.34,7.39,8.82,11.63,8.67s10.87-5.36,10.87-9.42v-13.1h56.25v51.27c0,2.47-5.36,7.9-8.23,8.26l-116.66.37c-1.83-.22-5.45-1.79-6.75-2.99-.58-.54-3.36-5.31-3.36-5.63v-51.27h56.25Z"/>
  <path d="M237,226.06v13.85c0,.49,2.71,4.8,3.48,5.51,4.37,4.01,11.27,4.2,15.66.12.58-.54,3.36-5.31,3.36-5.63v-13.85h56.25v52.4h-135v-52.4h56.25Z"/>
</svg>