<?xml version="1.0" encoding="UTF-8"?>
<svg id="Layer_1" xmlns="http://www.w3.org/2000/svg" version="1.1" viewBox="0 0 409.6 409.6">
  <!-- Generator: Adobe Illustrator 29.7.1, SVG Export Plug-In . SVG Version: 2.1.1 Build 8)  -->
  <path d="M62.28,0c.14,0,1.24.85,2.7.86,95.43.74,190.91-.68,286.34-.06l.1,9.5c9.51,1.49,19,7.7,22.83,16.73.91,2.13,2.61,8.16,2.61,10.18v45.6l-1.2,1.2H33.14l-1.2-1.2v-45.6c0-2.02,1.71-8.05,2.61-10.18,3.84-9.02,13.32-15.23,22.83-16.73l.9-10.29c1.32,0,2.67-.01,3.99,0ZM113.37,59.2c7.31-16.85-4.69-35.14-23.48-32.73-1.2.15-8.1,1.74-6.06,3.53l29.54,29.2ZM190.02,59.2c7.08-16.9-4.56-35.16-23.48-32.73-1.2.15-8.1,1.74-6.06,3.53l29.54,29.2ZM265.87,59.2c7.2-16.9-4.63-35.15-23.48-32.73-1.2.15-8.1,1.74-6.06,3.53l29.54,29.2ZM342.52,59.2c7.08-16.9-4.56-35.16-23.48-32.73-1.2.15-8.1,1.74-6.06,3.53l29.54,29.2ZM103.8,68.79l-29.14-29.6h-1.6c-8.24,20.21,10.99,37.83,30.75,29.6ZM180.45,68.79l-29.14-29.6h-1.6c-8.32,20.27,10.96,37.83,30.75,29.6ZM256.3,68.79l-29.14-29.6h-1.6c-8.24,20.21,10.99,37.83,30.75,29.6ZM332.95,68.79l-29.14-29.6c-1.78-2.04-3.37,4.87-3.52,6.07-2.38,18.64,15.92,30.62,32.67,23.53Z"/>
  <rect x="31.94" y="368" width="344.93" height="41.6"/>
  <path d="M376.86,96.8v258.4H31.94V96.8h344.93ZM325.21,142.15c3.67,3.39,14.4,2.83,16.16-2.91,3.77-12.26-9.61-25.97-21.57-26.48l-223.59.04c-11.42,1.15-22.03,11.87-21.97,23.6.05,9.81,14.94,11.61,18.55,3.38,1.66-3.78-.33-7.09,5.78-7.8l218.82-.02c6.84-.83,4.21,6.87,7.8,10.18ZM95.6,160.99c-8.06,1.7-11.92,8.36-12.59,16.18,2.45,40.82-3.16,85.27,0,125.66.71,9.07,5.1,16.34,14.77,17.2h210.05c9.68-.86,14.06-8.15,14.77-17.2,3.16-40.39-2.45-84.84,0-125.66-.62-7.17-4.05-13.88-11.35-15.82l-215.64-.36Z"/>
</svg>