<?xml version="1.0" encoding="UTF-8"?>
<svg id="Layer_1" xmlns="http://www.w3.org/2000/svg" version="1.1" viewBox="0 0 512 512">
  <!-- Generator: Adobe Illustrator 29.7.1, SVG Export Plug-In . SVG Version: 2.1.1 Build 8)  -->
  <path d="M156,512c-14.9-5.45-11.97-19.01-11.99-32.01-17.85.37-36.13-10.74-43.53-26.97-1.24-2.72-4.48-12.09-4.48-14.52v-247.5h319v248.5c0,3.22-4.08,12.91-5.83,16.17-8.21,15.29-24.9,24.41-42.18,24.33-.28,12.74,3.29,26.15-10.99,32.01h-8c-1.88-2.2-5.03-2.33-7.02-4.48-.57-.61-3.98-6.62-3.98-7.02v-20.5h-163v20.5c0,4.72-7.1,9.73-11,11.5h-7ZM332.73,225.24c-5.79,1.06-10.82,6.55-11.64,12.35,1.62,26.74-2.46,56.58-.13,82.95,1.75,19.81,27.59,18.58,29.95,1.87-1.62-26.4,2.46-55.93.13-81.95-.9-10.09-7.81-17.14-18.31-15.22Z"/>
  <path d="M375,0c16.42,1.4,40,22.85,40,39.5v121.5H96V41.5c0-19.31,22.62-39.3,41-41.5h238ZM333.77,64.19c-5.01.68-11.54,6.61-12.54,11.53-1.24,6.08-.96,30.01-.23,36.77,1.89,17.63,26.32,17.94,29.56,2.55,1.38-6.57,1.21-29.41.45-36.56-.91-8.53-8.48-15.48-17.23-14.3Z"/>
</svg>