<?xml version="1.0" encoding="UTF-8"?>
<svg id="Layer_1" xmlns="http://www.w3.org/2000/svg" version="1.1" viewBox="0 0 384 384">
  <!-- Generator: Adobe Illustrator 29.7.1, SVG Export Plug-In . SVG Version: 2.1.1 Build 8)  -->
  <path d="M79.33,24.91l224.03-.2c17.46,2.02,31.04,15.74,32.66,33.27v268.78c-1.63,17.73-15.58,31.68-33.38,33.31H81.35c-17.76-1.63-31.74-15.55-33.38-33.31l.04-269.49c1.95-16.71,14.66-29.93,31.32-32.36ZM93.56,60.81c-12.37,2.08-12.72,20.89-.6,23.44,5.99,1.26,34.34,1.15,40.85.27,13.07-1.77,13.51-20.98,1.23-23.55-5.65-1.19-35.55-1.15-41.49-.15ZM249.55,60.81c-14.68,2.37-11.65,26.57,4.9,23.6,14.38-2.58,11.95-26.32-4.9-23.6ZM285.55,60.81c-14.45,2.33-11.98,26.32,4.89,23.59,14.45-2.33,11.98-26.32-4.89-23.59ZM184.35,132.71c-69.49,5.29-110.25,81.84-75.99,142.76,36.59,65.05,131.91,64.48,167.77-1.01,36.7-67.04-15.91-147.53-91.78-141.75Z"/>
  <path d="M263.99,228.3c-.1,54.53-58.44,89.62-107,63.01-22.26-12.2-37.48-37.32-36.87-62.89,17.04-8.57,36.64-10.68,55.25-6.35,11.15,2.59,20.28,8.67,31.06,11.67,18.94,5.27,40.08,3.66,57.56-5.44Z"/>
</svg>