<?xml version="1.0" encoding="UTF-8"?>
<svg id="Layer_1" xmlns="http://www.w3.org/2000/svg" version="1.1" viewBox="0 0 392.17 392.17">
  <!-- Generator: Adobe Illustrator 29.7.1, SVG Export Plug-In . SVG Version: 2.1.1 Build 8)  -->
  <path d="M0,126.14c5.44-6.7,11.52-13.24,17.56-19.51,14.49-15.05,29.85-29.29,44.33-44.35l3.65-1.7,258.23-.2,5.73,2.68,60.26,60.52c.86,1.65,1.45,3.37,1.65,5.23.6,5.6.7,20.49-.07,25.92-.33,2.32-3.42,7.33-5.66,7.33h-27.9v161.68c0,2.63-3.08,7.06-5.68,8.08-3.9,1.53-15.03,1.49-18.05-1.94-.5-.56-2.27-4.2-2.27-4.61v-163.21h-25.23v94.41c0,9.45-18,10.22-23.12,5.75-.97-.85-2.87-4.74-2.87-5.75v-94.41H110.85v94.41c0,9.45-18,10.22-23.12,5.75-.97-.85-2.87-4.74-2.87-5.75v-94.41h-25.23v163.21c0,.42-1.77,4.05-2.27,4.61-3.02,3.43-14.15,3.47-18.05,1.94-2.6-1.02-5.68-5.45-5.68-8.08v-161.68H5.73c-1.57,0-5.08-4.51-5.73-6.12v-29.81Z"/>
</svg>