<?xml version="1.0" encoding="UTF-8"?>
<svg id="Layer_1" xmlns="http://www.w3.org/2000/svg" version="1.1" viewBox="0 0 384 384">
  <!-- Generator: Adobe Illustrator 29.7.1, SVG Export Plug-In . SVG Version: 2.1.1 Build 8)  -->
  <path d="M96,187.51c-1.7-16-14.55-31.08-30.05-35.26.1-13.68-.82-26.6,2.68-39.96,7.67-29.34,33.2-51.86,63.1-56.79,36.56.14,76.02-3.08,112.43-.89,32.89,1.98,62.08,24.77,70.85,56.54,3.81,13.81,3.12,27.29,2.91,41.48-11.46,2.54-21.8,12.09-26.31,22.77-1.05,2.48-3.61,9.8-3.61,12.11v23.58H96c-.58-7.55.79-16.17,0-23.58Z"/>
  <path d="M331.71,223.27c-1.11,1.1-1.61,3.79-1.75,5.37-2.42,26.61,1.88,56.89.06,83.89-.06,2.39-1.54,4.39-3.73,5.26l-267.37.29c-2.8-.41-4.86-2.72-4.94-5.55l-.14-85.94c-2.56-6.03-9.75-5.4-15.34-8.64-22.16-12.84-17.87-46.86,6.65-54.25,17.88-5.38,36.82,6.86,38.76,25.39,2.48,23.7-2.64,52.17.08,75.53.35,3.02,1.86,5,4.94,5.55l207.89-.52c2.13-1.11,2.93-2.72,3.21-5.03,2.67-22.77-1.89-50.74-.04-74.15,1.1-13.97,11.97-26.2,26.11-27.83,34.93-4.04,48.06,44.38,13.88,58.01-2.28.91-6.64,1.02-8.25,2.62Z"/>
  <path d="M288,258.25H96v-31.81c0-1.71,4.29-4.83,6.34-4.15h179.32c2.04-.68,6.34,2.44,6.34,4.15v31.81Z"/>
  <polygon points="87.75 330.11 79.58 359.6 72 360.05 72 330.11 87.75 330.11"/>
  <polygon points="312 330.11 312 360.05 304.42 359.6 296.25 330.11 312 330.11"/>
</svg>