<?xml version="1.0" encoding="UTF-8"?>
<svg id="Layer_1" xmlns="http://www.w3.org/2000/svg" version="1.1" viewBox="0 0 384 384">
  <!-- Generator: Adobe Illustrator 29.7.1, SVG Export Plug-In . SVG Version: 2.1.1 Build 8)  -->
  <path d="M292.5,139.98H91.5V40.05c0-2.76,6.83-8.47,10.12-7.86l183.24.51c2.97.28,7.64,5.46,7.64,8.1v99.18Z"/>
  <path d="M253.5,253.75v74.85h-123v-74.85h123ZM173.04,268.89c-4.84,1.11-4.73,7.93.64,8.78,5.67.89,30.98.89,36.66,0s5.55-8.02,0-8.89l-37.29.11Z"/>
  <path d="M121.5,229.8v98.81H40.88c-.75,0-3.38-2.62-3.38-3.37v-95.44h84ZM101.06,247.88c-4.82.87-4.03,12.06-3.57,15.99.73,6.24,7.71,6.24,8.85,1.32.53-2.28.47-10.06.17-12.58-.36-3.07-2.06-5.35-5.46-4.73Z"/>
  <path d="M346.5,229.8v95.44c0,.75-2.62,3.37-3.38,3.37h-80.62v-98.81h84ZM281.06,247.88c-4.82.87-4.03,12.06-3.57,15.99.73,6.24,7.71,6.24,8.85,1.32.53-2.28.47-10.06.17-12.58-.36-3.07-2.06-5.35-5.46-4.73Z"/>
  <path d="M35.04,200.02l312.6-.17c6.44-.3,5.4,11.63,4.87,16.12-.41,3.5-2.04,4.91-5.6,4.89l-310.55-.02c-3.29-.38-4.49-1.55-4.87-4.87-.48-4.08-1.32-14.91,3.55-15.95Z"/>
  <path d="M292.5,148.96v16.09c0,.69-2.33,4.34-3,5.02-3.35,3.39-7.68,1.75-11.99,2.09l9,18.71h-34.12l-8.55-18.25-96.33-.49-9.88,18.74h-33.38l8.25-18.71h-14.62c-1.44,0-6.38-5.79-6.38-7.11v-16.09h201Z"/>
  <rect x="130.5" y="229.8" width="123" height="14.97"/>
  <path d="M70.5,337.59v11.6c0,1.47-2.69,3.08-4.17,3.32-4.63.74-18.29.54-23.24.08-1.87-.17-5.59-1.1-5.59-3.4v-12.35c.81-.28,1.65.75,1.88.75h31.12Z"/>
  <path d="M346.5,336.84v12.35c0,2.31-3.72,3.23-5.59,3.4-4.95.46-18.61.66-23.24-.08-1.48-.24-4.17-1.86-4.17-3.32v-11.6h31.12c.23,0,1.07-1.03,1.88-.75Z"/>
</svg>