<?xml version="1.0" encoding="UTF-8"?>
<svg id="Layer_1" xmlns="http://www.w3.org/2000/svg" version="1.1" viewBox="0 0 384 384">
  <!-- Generator: Adobe Illustrator 29.7.1, SVG Export Plug-In . SVG Version: 2.1.1 Build 8)  -->
  <path d="M384,161.68v11.23l-4.51,63.99c-3.06,23.6-21.48,41.34-45.33,43.09H49.84c-23.35-1.52-42.11-19.3-45.33-42.34L0,173.66v-11.98c4.81-23.45,32.31-35.47,51.69-19.77,16.6,13.45,14.18,49.46,21.68,68.94,2.91,7.55,8.74,12.04,16.44,14.29l205.56-.33c8.32-2.88,13.74-8.23,16.28-16.69,5.09-16.95,5.77-49.86,16.88-62.49,18.07-20.53,50.32-9.72,55.48,16.07Z"/>
  <path d="M84.75,291.93c-3.76,10.24-3.36,27.07-13.25,33.56-6.72,4.41-16.01,3.67-21.96-1.79-9.49-8.71-4.02-21.29-1.54-31.77h36.75Z"/>
  <path d="M336,291.93c1.43,7.04,4.55,14.02,3.75,21.34-1.2,10.98-13.06,17.55-23.24,14.21-13.97-4.59-13.11-23.97-17.26-35.55h36.75Z"/>
  <path d="M344.9,123.41c-9.09,1.94-18.71,6.62-25.03,13.57-15.33,16.85-12.96,47.64-20.07,68.29-1.28,3.71-3.57,6.26-7.27,7.71l-199.16.37c-4.22-.51-7.5-3.67-8.96-7.52-6.85-18.09-5-44.1-15-61.38-7.28-12.58-19.54-19.67-33.79-21.67-10.22-28.99,8.56-60.35,38.47-65.71,74.54-2.17,149.4-.34,224.05-.93,24.15,1.26,44.53,18.28,48.28,42.39,1.35,8.68-.19,16.29-1.5,24.87Z"/>
</svg>