<?xml version="1.0" encoding="UTF-8"?>
<svg id="Layer_1" xmlns="http://www.w3.org/2000/svg" version="1.1" viewBox="0 0 351.09 351.09">
  <!-- Generator: Adobe Illustrator 29.7.1, SVG Export Plug-In . SVG Version: 2.1.1 Build 8)  -->
  <path d="M351.09,221.05c-1.6,4.31-3.31,8.19-7.3,10.84-.74.49-5.62,2.85-6.04,2.85h-11.98v24.98l-1.03,1.03h-24.98v-26.01H52.01v26.01h-24.98l-1.03-1.03v-24.98h-11.98c-6.08,0-12.59-9.12-13.27-14.79-2.7-22.56,1.61-50.44.23-73.53,2.57-14.93,22.96-18.79,31.06-6.35.7,1.07,2.85,5.78,2.85,6.73v45.51h281.96v-45.51c0-2.92,4.12-8.77,6.5-10.61,10.44-8.06,24.66-2.08,27.72,10.27v74.6Z"/>
  <path d="M52.01,109.16c1.53-14.45,10.18-18.7,23.58-19.54l201.92.04c8.15,1.01,15.95,2.28,19.65,10.47.78,1.73,2.61,7.43,2.61,9.03v66.04H52.01v-66.04Z"/>
</svg>