<?xml version="1.0" encoding="UTF-8"?>
<svg id="Layer_1" xmlns="http://www.w3.org/2000/svg" version="1.1" viewBox="0 0 384 384">
  <!-- Generator: Adobe Illustrator 29.7.1, SVG Export Plug-In . SVG Version: 2.1.1 Build 8)  -->
  <path d="M384,60.63v200.61c-2.03,4.37-4.3,7.65-8.97,9.38H8.97c-4.68-1.73-6.95-5.02-8.97-9.38V60.63c1.84-4.14,4.74-7.71,9.25-9.1l361.65-.65c6.47.1,10.45,4.33,13.1,9.76Z"/>
  <path d="M222,293.43v16.84c.66,1.07,1.49,1.03,2.59,1.16,13.18,1.54,29.43-1.37,42.83-.08,13.2,1.28,13.88,19.39,1.28,22.31l-153.99-.15c-11.99-3.37-11.09-20.91,1.88-22.16,13.4-1.29,29.65,1.62,42.83.08,1.09-.13,1.93-.09,2.59-1.16v-16.84h60Z"/>
</svg>